<svg width="30" height="30" viewBox="0 0 30 30" fill="none" xmlns="http://www.w3.org/2000/svg">
<path d="M0 11.1856V10.8457C0 6.75 2.96016 3.25664 6.99609 2.58399C9.61523 2.13926 12.3867 3.00996 14.2969 4.92305L15 5.625L15.6504 4.92305C17.6133 3.00996 20.332 2.13926 23.0039 2.58399C27.041 3.25664 30 6.75 30 10.8457V11.1856C30 13.6172 28.9922 15.9434 27.2109 17.6016L16.623 27.4863C16.1836 27.8965 15.6035 28.125 15 28.125C14.3965 28.125 13.8164 27.8965 13.377 27.4863L2.78848 17.6016C1.00957 15.9434 1.75781e-05 13.6172 1.75781e-05 11.1856H0Z" fill="#A60000"/>
</svg>
