<svg width="30" height="27" viewBox="0 0 30 27" fill="none" xmlns="http://www.w3.org/2000/svg">
<path d="M0 9.18555V8.84571C0 4.75 2.96016 1.25664 6.99609 0.583985C9.61523 0.139259 12.3867 1.00996 14.2969 2.92305L15 3.625L15.6504 2.92305C17.6133 1.00996 20.332 0.139259 23.0039 0.583985C27.041 1.25664 30 4.75 30 8.84571V9.18555C30 11.6172 28.9922 13.9434 27.2109 15.6016L16.623 25.4863C16.1836 25.8965 15.6035 26.125 15 26.125C14.3965 26.125 13.8164 25.8965 13.377 25.4863L2.78848 15.6016C1.00957 13.9434 1.75781e-05 11.6172 1.75781e-05 9.18555H0Z" fill="#A60000"/>
</svg>
