<svg width="61" height="55" viewBox="0 0 61 55" fill="none" xmlns="http://www.w3.org/2000/svg">
<path d="M55.1741 0.8125H5.61154C2.56035 0.8125 0 3.37283 0 6.53125V48.4688C0 51.6272 2.56033 54.1875 5.61153 54.1875H55.1741C58.3325 54.1875 60.8928 51.6272 60.8928 48.4688V6.53125C60.8928 3.37283 58.4385 0.8125 55.1741 0.8125ZM13.2365 45.6094C13.2365 46.1357 12.8098 46.5625 12.2834 46.5625H6.56466C6.0383 46.5625 5.61154 46.1357 5.61154 45.6094V39.8906C5.61154 39.3643 6.0383 38.9375 6.56466 38.9375H12.1762C12.7026 38.9375 13.1293 39.3643 13.1293 39.8906L13.2365 45.6094ZM13.2365 30.3594C13.2365 30.8857 12.8098 31.3125 12.2834 31.3125H6.56466C6.0383 31.3125 5.61154 30.8857 5.61154 30.3594V24.6406C5.61154 24.1143 6.0383 23.6875 6.56466 23.6875H12.1762C12.7026 23.6875 13.1293 24.1143 13.1293 24.6406V30.3594H13.2365ZM13.2365 15.1094C13.2365 15.6357 12.8098 16.0625 12.2834 16.0625H6.56466C6.0383 16.0625 5.61154 15.6357 5.61154 15.1094V9.39062C5.61154 8.86426 6.0383 8.4375 6.56466 8.4375H12.1762C12.7026 8.4375 13.1293 8.86426 13.1293 9.39062L13.2365 15.1094ZM41.8303 44.6562C41.8303 45.709 40.9768 46.5625 39.9241 46.5625H20.8615C19.8088 46.5625 18.9553 45.709 18.9553 44.6562V33.2188C18.9553 32.1658 19.8088 31.3125 20.8615 31.3125H39.9241C40.9768 31.3125 41.8303 32.1658 41.8303 33.2188V44.6562ZM41.8303 21.7812C41.8303 22.834 40.9768 23.6875 39.9241 23.6875H20.8615C19.8088 23.6875 18.9553 22.834 18.9553 21.7812V10.3438C18.9553 9.29078 19.8088 8.4375 20.8615 8.4375H39.9241C40.9768 8.4375 41.8303 9.29078 41.8303 10.3438V21.7812ZM55.1741 45.6094C55.1741 46.1357 54.7473 46.5625 54.2209 46.5625H48.6094C48.0831 46.5625 47.7635 46.1357 47.7635 45.6094V39.8906C47.7635 39.3643 48.1903 38.9375 48.7166 38.9375H54.3282C54.8545 38.9375 55.2813 39.3643 55.2813 39.8906V45.6094H55.1741ZM55.1741 30.3594C55.1741 30.8857 54.7473 31.3125 54.2209 31.3125H48.6094C48.0831 31.3125 47.6563 30.8857 47.6563 30.3594V24.6406C47.6563 24.1143 48.0831 23.6875 48.6094 23.6875H54.2209C54.7473 23.6875 55.1741 24.1143 55.1741 24.6406V30.3594ZM55.1741 15.1094C55.1741 15.6357 54.7473 16.0625 54.2209 16.0625H48.6094C48.0831 16.0625 47.6563 15.6357 47.6563 15.1094V9.39062C47.6563 8.86426 48.0831 8.4375 48.5022 8.4375H54.1137C54.6401 8.4375 55.0668 8.86426 55.0668 9.39062V15.1094H55.1741Z" fill="#C4C4C4"/>
</svg>
